<!DOCTYPE svg PUBLIC "-//W3C//DTD SVG 1.1//EN" "http://www.w3.org/Graphics/SVG/1.1/DTD/svg11.dtd">
<!-- Uploaded to: SVG Repo, www.svgrepo.com, Transformed by: SVG Repo Mixer Tools -->
<svg width="800px" height="800px" viewBox="0 0 48 48" xmlns="http://www.w3.org/2000/svg" fill="#ffffff" stroke="#ffffff">
<g id="SVGRepo_bgCarrier" stroke-width="0"/>
<g id="SVGRepo_tracerCarrier" stroke-linecap="round" stroke-linejoin="round"/>
<g id="SVGRepo_iconCarrier">
<defs>
<style>.a,.b{fill:none;stroke:#ffffff;stroke-linecap:round;stroke-linejoin:round;}.a{fill-rule:evenodd;}.b{stroke-width:0.87px;}</style>
</defs>
<path class="a" d="M35.55,5.09H12.45A7,7,0,0,0,5.5,12V42.09H35.55a7,7,0,0,0,7-6.94V12A7,7,0,0,0,35.55,5.09ZM32.88,34a2.48,2.48,0,1,1,2.47-2.48A2.47,2.47,0,0,1,32.88,34Z"/>
<path class="b" d="M22.89,24a5,5,0,0,1,0,10H14.64V14h8.25a5,5,0,0,1,0,10Z"/>
<line class="b" x1="22.89" y1="24" x2="14.64" y2="24"/>
</g>
</svg>