<svg version="1.1" id="Layer_1" xmlns="http://www.w3.org/2000/svg" xmlns:xlink="http://www.w3.org/1999/xlink" x="0px" y="0px"
	 width="100%" viewBox="0 0 1024 1024" enable-background="new 0 0 1024 1024" xml:space="preserve">
<path fill="#000000" opacity="1.000000" stroke="none" 
	d="
M763.914185,320.063538 
	C765.771545,340.167450 763.398682,359.626709 758.980896,378.827972 
	C749.563538,419.759247 729.944763,455.351257 700.335449,484.957550 
	C670.983643,514.306335 635.831848,533.921875 595.163269,543.288513 
	C580.681702,546.623901 566.026917,548.439636 551.214050,549.088318 
	C544.915833,549.364075 544.733093,549.052673 544.678040,542.840271 
	C544.676575,542.673706 544.677795,542.507141 544.677002,542.340576 
	C544.638123,533.785339 544.652710,534.064636 553.330750,533.610596 
	C594.496338,531.457031 632.432678,519.336060 666.308716,495.653870 
	C713.290405,462.809753 742.922180,418.215790 755.018005,362.156921 
	C757.685913,349.792175 758.950806,337.191162 758.941467,324.486420 
	C758.939453,321.720917 758.569336,317.740173 763.914185,320.063538 
M553.427551,538.173462 
	C550.862000,538.114929 549.410828,539.272339 549.379089,541.929626 
	C549.356262,543.838745 550.417480,545.023987 552.158081,545.464233 
	C554.149902,545.968018 555.814941,545.241272 556.486694,543.264221 
	C557.253052,541.008545 556.891663,539.032349 553.427551,538.173462 
z"/>
<path fill="#000000" opacity="1.000000" stroke="none" 
	d="
M287.663208,430.217651 
	C271.171478,394.851501 264.151520,358.204132 268.032928,319.656616 
	C270.946381,323.512146 270.731079,328.099792 270.785370,332.362701 
	C271.268158,370.268036 282.172150,405.061310 301.901459,437.177795 
	C318.054962,463.473419 339.715363,484.254425 365.978516,500.443085 
	C389.662720,515.041992 415.558136,523.807007 442.366425,530.221313 
	C451.709839,532.456909 461.289459,533.651611 470.871582,534.425842 
	C474.324768,534.704773 475.681671,535.917969 475.231415,539.320007 
	C475.013885,540.963684 474.972321,542.644226 475.006409,544.304871 
	C475.084167,548.089966 473.366058,548.969421 469.684021,548.638550 
	C425.107666,544.632996 384.192810,530.579224 347.936493,504.055145 
	C324.166138,486.665405 305.723572,464.552063 291.936737,438.545197 
	C290.533539,435.898254 289.193451,433.217865 287.663208,430.217651 
M466.903809,545.471680 
	C469.438904,545.861450 471.206116,544.995605 471.621002,542.321655 
	C471.899750,540.525696 471.421631,538.927307 469.401520,538.424622 
	C467.745270,538.012512 465.899689,537.827515 464.907898,539.550903 
	C463.674530,541.694153 464.041687,543.718506 466.903809,545.471680 
z"/>
<path fill="#000000" opacity="1.000000" stroke="none" 
	d="
M517.395264,333.852081 
	C518.961914,374.455872 517.641052,414.609528 518.522156,454.733551 
	C519.158569,483.712402 519.082764,512.686707 519.332764,541.662842 
	C519.393311,548.675110 515.687439,551.108398 508.835785,548.903381 
	C506.192810,548.052795 506.397186,546.107605 506.400299,544.108765 
	C506.470856,498.476044 506.560394,452.843384 506.612305,407.210632 
	C506.642975,380.225769 506.608093,353.240875 506.618958,326.255981 
	C506.621399,320.148468 507.649109,319.330719 513.573975,319.817261 
	C516.291809,320.040466 517.440063,321.163788 517.356750,323.879578 
	C517.259644,327.040863 517.366699,330.208405 517.395264,333.852081 
M515.885925,544.262756 
	C517.308472,541.705322 517.409668,539.417969 514.163635,538.349426 
	C512.566467,537.823669 510.816437,538.021851 509.759796,539.685913 
	C508.897369,541.044128 508.757782,542.618469 509.707306,543.895935 
	C511.213623,545.922546 513.211426,546.171265 515.885925,544.262756 
z"/>
<path fill="#000000" opacity="1.000000" stroke="none" 
	d="
M531.345032,681.422791 
	C531.312866,682.677307 531.323669,683.511230 531.283936,684.342712 
	C531.203125,686.037476 531.217957,687.942017 528.785278,687.800293 
	C526.705933,687.679260 526.724609,685.934692 526.720459,684.432068 
	C526.698364,676.436462 526.738708,668.440491 526.704956,660.444946 
	C526.694763,658.027710 527.589905,656.661255 530.195129,656.723572 
	C533.856506,656.811218 537.553833,656.529846 541.173218,656.947815 
	C545.510925,657.448669 549.066406,659.376831 550.619629,663.961548 
	C552.129028,668.417053 550.873169,672.131653 547.950928,675.483704 
	C547.303589,676.226318 546.449402,676.788574 545.686829,677.436829 
	C546.461731,681.332214 550.001831,683.579102 550.773010,687.412292 
	C546.185303,689.431274 544.963074,685.738037 543.622437,683.276123 
	C541.511108,679.399048 538.700684,677.683960 534.306396,678.335144 
	C532.582092,678.590576 531.460510,679.129944 531.345032,681.422791 
M543.063110,662.135132 
	C541.785095,661.865723 540.511047,661.396118 539.228271,661.370911 
	C536.938965,661.325989 534.018616,660.341248 532.491882,661.902954 
	C529.996338,664.455688 531.402832,668.173706 531.479675,671.371094 
	C531.549805,674.290588 534.164062,673.687500 536.037231,673.812012 
	C537.351257,673.899353 538.679077,673.767151 540.000916,673.749268 
	C542.915710,673.709839 545.271423,672.549500 546.255249,669.757812 
	C547.281982,666.844360 546.673218,664.196777 543.063110,662.135132 
z"/>
<path fill="#000000" opacity="1.000000" stroke="none" 
	d="
M445.038879,678.340210 
	C440.677032,677.826721 438.646667,679.203064 438.923248,683.496521 
	C439.043243,685.359009 439.129913,688.004150 436.186798,687.805481 
	C433.670807,687.635620 433.994843,685.238220 433.982758,683.487976 
	C433.932190,676.179688 434.046875,668.869934 433.957886,661.562439 
	C433.914459,657.996704 435.302765,656.326660 439.001770,656.656555 
	C441.144623,656.847656 443.318176,656.671570 445.476929,656.712402 
	C453.879028,656.871338 458.238220,660.481812 458.318726,667.320007 
	C458.404205,674.581055 454.327484,678.080505 445.038879,678.340210 
M449.522125,673.453491 
	C453.798676,670.743469 455.068054,666.692993 452.592957,663.654846 
	C450.748749,661.391113 441.923645,660.236084 439.974396,662.035156 
	C439.630920,662.352173 439.396851,662.831665 439.219940,663.278687 
	C436.695862,669.657166 439.593781,674.005066 446.217499,673.788025 
	C447.047180,673.760803 447.874847,673.672974 449.522125,673.453491 
z"/>
<path fill="#000000" opacity="1.000000" stroke="none" 
	d="
M487.563354,683.548279 
	C491.797699,683.465881 495.622955,683.251526 499.448547,683.245605 
	C501.140717,683.243042 502.993500,683.637207 502.864227,685.938416 
	C502.752502,687.926636 501.069397,688.135803 499.535645,688.148438 
	C494.537720,688.189636 489.539154,688.154541 484.540833,688.155640 
	C481.808716,688.156250 480.700684,686.744019 480.718811,684.078613 
	C480.772095,676.247803 480.753052,668.416321 480.739075,660.585144 
	C480.734924,658.257629 481.500397,656.719177 484.150879,656.734253 
	C489.148956,656.762695 494.147583,656.716125 499.145477,656.758667 
	C500.512238,656.770325 501.939423,657.010925 502.018463,658.802979 
	C502.110352,660.885681 500.566406,661.205566 498.986023,661.236755 
	C495.654694,661.302612 492.318146,661.389587 488.990417,661.274414 
	C485.619446,661.157837 485.329773,663.162659 485.289948,665.797241 
	C485.249023,668.502625 486.164612,669.862061 489.016479,669.769104 
	C491.678589,669.682434 494.348358,669.745361 497.012207,669.826477 
	C498.591461,669.874634 500.134033,670.225830 500.045776,672.286316 
	C499.968933,674.081482 498.528198,674.269348 497.160004,674.311829 
	C494.995636,674.379150 492.825256,674.291626 490.663696,674.398132 
	C488.769592,674.491333 486.100128,673.724792 485.658173,676.375610 
	C485.264008,678.739807 483.959229,681.720642 487.563354,683.548279 
z"/>
<path fill="#000000" opacity="1.000000" stroke="none" 
	d="
M592.591309,656.720947 
	C594.488586,656.868164 595.745972,657.294556 595.655518,659.057129 
	C595.567871,660.765198 594.298889,661.207764 592.859192,661.235779 
	C590.195801,661.287598 587.520691,661.433044 584.869751,661.254211 
	C581.450134,661.023621 580.171631,662.330872 580.124268,665.832092 
	C580.074158,669.536560 581.363281,671.041626 585.056580,670.709290 
	C587.036804,670.531067 589.050720,670.675537 591.046997,670.744507 
	C592.400085,670.791321 593.893738,670.909668 593.978149,672.709778 
	C594.073425,674.741760 592.534180,675.065735 590.948486,675.195312 
	C590.617004,675.222351 590.280273,675.195801 589.950562,675.233459 
	C587.013733,675.568481 583.503174,674.021667 581.244934,676.084656 
	C578.909668,678.217957 580.538086,681.786621 580.200073,684.703430 
	C580.015015,686.300232 579.777710,687.864380 577.807068,687.855225 
	C575.805603,687.845886 575.516296,686.258118 575.519714,684.656738 
	C575.536926,676.498840 575.623047,668.340515 575.564209,660.183228 
	C575.545471,657.586060 576.638123,656.621399 579.151611,656.674500 
	C583.479187,656.765991 587.810059,656.700439 592.591309,656.720947 
z"/>
</svg>