<svg version="1.1" id="Layer_1" xmlns="http://www.w3.org/2000/svg" xmlns:xlink="http://www.w3.org/1999/xlink" x="0px" y="0px"
	 width="100%" viewBox="0 0 1024 1024" enable-background="new 0 0 1024 1024" xml:space="preserve">
<path fill="#000000" opacity="1.000000" stroke="none" 
	d="
M613.386047,836.579102 
	C625.992554,838.728699 638.345825,838.629883 650.607178,839.647034 
	C652.424072,839.797729 654.509827,839.490356 654.592773,842.210327 
	C654.678162,845.011719 652.780640,845.303284 650.579041,845.376770 
	C627.180725,846.158142 604.087158,844.155090 581.210999,838.911194 
	C521.752197,825.281616 472.522491,794.776794 433.630768,748.174500 
	C399.841034,707.685608 379.871368,660.803772 373.577057,608.276489 
	C372.505737,599.335815 371.943878,590.375244 371.714447,581.369568 
	C371.601013,576.917664 373.212067,575.229004 377.512360,575.702332 
	C378.828156,575.847168 380.176025,575.690430 381.509216,575.688477 
	C390.708710,575.674927 390.846558,575.673584 391.032318,585.018860 
	C391.803375,623.818115 401.146423,660.534668 418.877777,694.918762 
	C446.509552,748.501465 487.491028,788.527283 542.082336,814.592590 
	C564.696838,825.390137 588.474670,831.978943 613.386047,836.579102 
M385.694153,586.380981 
	C385.857910,582.812439 384.004578,581.090759 380.582062,581.123169 
	C378.113647,581.146545 376.510498,582.511963 376.171356,585.027588 
	C375.830811,587.554016 376.380127,589.866455 379.118500,590.631104 
	C382.223969,591.498352 384.755493,590.722107 385.694153,586.380981 
z"/>
<path fill="#000000" opacity="1.000000" stroke="none" 
	d="
M404.776611,369.892212 
	C436.197998,308.936340 484.678711,268.492584 549.128113,247.009232 
	C569.525330,240.210083 590.519897,236.152649 612.047058,234.453568 
	C624.713440,233.453842 637.330017,234.068436 649.963623,233.730011 
	C651.535583,233.687897 654.266174,232.874405 654.059387,235.795410 
	C653.892639,238.151398 651.467529,237.312271 649.967712,237.351318 
	C618.218323,238.177689 587.061279,242.654343 557.091492,253.450043 
	C529.435547,263.412292 504.304749,277.909027 481.811188,296.953705 
	C466.213257,310.160126 452.557861,325.069061 440.714386,341.713867 
	C424.738861,364.165863 413.246552,388.815643 404.402893,414.791504 
	C396.706635,437.397125 392.010376,460.622192 390.300598,484.437073 
	C390.012756,488.446533 388.644318,490.777588 384.162903,490.029388 
	C383.026886,489.839722 381.835052,489.983002 380.668884,489.975739 
	C371.562164,489.919128 371.316040,489.588593 372.186584,480.683868 
	C375.987640,441.804138 386.903320,405.019745 404.776611,369.892212 
M385.616455,479.895569 
	C384.685577,476.329376 382.018188,475.727814 379.059143,476.547821 
	C376.398376,477.285217 375.869293,479.655212 376.201752,482.151550 
	C376.542389,484.709167 378.217285,485.820374 380.662567,485.851257 
	C384.139404,485.895172 385.841034,484.155243 385.616455,479.895569 
z"/>
<path fill="#000000" opacity="1.000000" stroke="none" 
	d="
M519.000122,528.655518 
	C563.953979,528.655334 608.407837,528.655334 652.709229,528.655334 
	C654.187927,532.272644 653.700500,535.466980 653.776062,538.585938 
	C653.835144,541.024658 652.423401,542.210449 649.989990,542.189636 
	C649.156982,542.182556 648.323853,542.221313 647.490662,542.226624 
	C586.335876,542.616089 525.180969,542.981262 464.026428,543.403442 
	C436.867493,543.590881 409.709381,543.897766 382.550781,544.135376 
	C380.219635,544.155823 377.886749,544.088196 375.556091,544.015442 
	C373.348480,543.946472 372.242798,542.718628 372.094849,540.558411 
	C372.083496,540.392273 372.064819,540.226440 372.043976,540.061218 
	C370.730927,529.635742 371.611237,528.659546 382.010376,528.661499 
	C427.506927,528.669983 473.003510,528.659424 519.000122,528.655518 
M385.651398,535.760864 
	C385.155273,532.857361 383.307526,531.412415 380.489716,531.463135 
	C378.327271,531.502136 376.700745,532.663208 376.244965,534.929810 
	C375.669403,537.792236 376.081665,540.499695 379.297882,541.305725 
	C383.085602,542.255005 385.302307,540.428772 385.651398,535.760864 
z"/>
</svg>